<?xml version="1.0" encoding="UTF-8"?><svg id="Layer_2" xmlns="http://www.w3.org/2000/svg" viewBox="0 0 1397.14 410.16"><defs><style>.cls-1{fill:#071035;font-family:ArialRoundedMTBold, 'Arial Rounded MT Bold';font-size:180.26px;}.cls-2{stroke-width:39px;}.cls-2,.cls-3{fill:none;stroke:#071035;stroke-miterlimit:10;}.cls-3{stroke-linecap:round;stroke-width:16px;}.cls-4{fill:#34b196;}</style></defs><g id="Layer_1-2"><path class="cls-2" d="M489.53,193.02c0-95.91-95.81-173.52-214.22-173.52S61.09,97.11,61.09,193.02"/><path class="cls-4" d="M548.41,282.15c-14.14,71.77-74.99,127.76-137.01,128-43.07.17-74.32-24.13-82.75-30.98-20.89-16.96-20.45-51.53-43.63-58.08-8.78-2.48-16.29-.41-19.72.58-28.52,8.23-28.08,48.88-56.04,66.88-8.93,5.75-35.11,22.13-70.11,21.61-60.68-.91-122.17-55.6-137-127.93-2.13-10.4-5.91-40.67,7.68-73.33,32.3-77.6,145.35-83.55,156.01-84.08,49.22-2.45,52.96,14.58,117.26,13.54,59.02-.96,60.83-15.39,105.23-13.54,12.11.51,118.05,5.22,151.18,79.62,15.35,34.46,11,67.08,8.9,77.72Z"/><path class="cls-3" d="M206.27,259.06c-39.36,39.36-103.07,39.36-142.43,0"/><line class="cls-3" x1="72.84" y1="306.43" x2="88.95" y2="278.53"/><line class="cls-3" x1="135.06" y1="318.61" x2="135.06" y2="288.58"/><line class="cls-3" x1="199.27" y1="306.43" x2="183.16" y2="278.53"/><path class="cls-3" d="M486.77,259.06c-39.36,39.36-103.07,39.36-142.43,0"/><line class="cls-3" x1="353.34" y1="306.43" x2="369.45" y2="278.53"/><line class="cls-3" x1="415.56" y1="318.61" x2="415.56" y2="288.58"/><line class="cls-3" x1="479.77" y1="306.43" x2="463.66" y2="278.53"/><text class="cls-1" transform="translate(604.63 273.69)"><tspan x="0" y="0">nanmask</tspan></text></g></svg>